<svg width="15" height="15" viewBox="0 0 15 15" fill="none" xmlns="http://www.w3.org/2000/svg">
<path d="M7.5 0C3.37793 0 0 3.37793 0 7.5C0 11.6221 3.37793 15 7.5 15C11.6221 15 15 11.6221 15 7.5C15 3.37793 11.6221 0 7.5 0Z" fill="#FF3636"/>
<path d="M15 7.5C15 11.6221 11.6221 15 7.5 15V0C11.6221 0 15 3.37793 15 7.5Z" fill="#F40000"/>
<path d="M8.73923 7.49999L11.2266 9.98732L9.98733 11.2266L7.5 8.73922L5.01267 11.2266L3.77344 9.98732L6.26077 7.49999L3.77344 5.01266L5.01267 3.77344L7.5 6.26077L9.98733 3.77344L11.2266 5.01266L8.73923 7.49999Z" fill="#E7E7E7"/>
<path d="M8.73923 7.49999L11.2266 9.98732L9.98733 11.2266L7.5 8.73922V6.26077L9.98733 3.77344L11.2266 5.01266L8.73923 7.49999Z" fill="#D3D3D8"/>
</svg>
