<svg width="30" height="30" viewBox="0 0 30 30" fill="none" xmlns="http://www.w3.org/2000/svg">
<path d="M29.1907 13.0486L29.1886 13.0465L16.951 0.809326C16.4294 0.287476 15.7359 0 14.9982 0C14.2605 0 13.567 0.287247 13.0451 0.809097L0.813904 13.0401C0.809784 13.0442 0.805664 13.0486 0.801544 13.0527C-0.269622 14.13 -0.267791 15.878 0.806809 16.9526C1.29776 17.4438 1.94618 17.7283 2.63947 17.758C2.66762 17.7608 2.696 17.7621 2.72461 17.7621H3.21236V26.768C3.21236 28.55 4.66232 30 6.44485 30H11.2326C11.7178 30 12.1115 29.6066 12.1115 29.1211V22.0605C12.1115 21.2473 12.773 20.5859 13.5862 20.5859H16.4101C17.2234 20.5859 17.8848 21.2473 17.8848 22.0605V29.1211C17.8848 29.6066 18.2783 30 18.7637 30H23.5515C25.334 30 26.784 28.55 26.784 26.768V17.7621H27.2362C27.9737 17.7621 28.6672 17.4749 29.1893 16.953C30.265 15.8766 30.2655 14.1257 29.1907 13.0486Z" fill="#5D748A"/>
</svg>
