<svg width="120" height="120" viewBox="0 0 120 120" fill="none" xmlns="http://www.w3.org/2000/svg">
<circle cx="60" cy="60" r="60" fill="#4A76A8"/>
<path d="M60 59.4533C65.5591 59.4533 70.0661 53.9793 70.0661 47.2267C70.0661 40.474 68.5864 35 60 35C51.4136 35 49.9336 40.474 49.9336 47.2267C49.9336 53.9793 54.4406 59.4533 60 59.4533Z" fill="white"/>
<path d="M40.987 78.1217C40.9853 77.71 40.9836 78.0057 40.987 78.1217V78.1217Z" fill="white"/>
<path d="M79.0121 78.4433C79.0176 78.3306 79.014 77.6613 79.0121 78.4433V78.4433Z" fill="white"/>
<path d="M78.9907 77.6278C78.8043 65.8647 77.268 62.5128 65.5118 60.3911C65.5118 60.3911 63.857 62.4998 59.9998 62.4998C56.1427 62.4998 54.4876 60.3911 54.4876 60.3911C42.8597 62.4897 41.23 65.7918 41.0157 77.2457C40.9981 78.181 40.99 78.2301 40.9868 78.1215C40.9876 78.325 40.9884 78.7013 40.9884 79.3574C40.9884 79.3574 43.7873 84.9997 59.9998 84.9997C76.2121 84.9997 79.0113 79.3574 79.0113 79.3574C79.0113 78.9358 79.0116 78.6427 79.012 78.4433C79.0089 78.5104 79.0026 78.3803 78.9907 77.6278Z" fill="white"/>
</svg>
