<svg width="157" height="50" viewBox="0 0 157 50" fill="none" xmlns="http://www.w3.org/2000/svg">
<path d="M60.312 28.812H64.03V31.62C64.03 32.0533 64.264 32.27 64.732 32.27H65.174C65.642 32.27 65.876 32.0533 65.876 31.62V18.464H69.594V32.114C69.594 34.038 68.502 35 66.318 35H63.588C61.404 35 60.312 34.038 60.312 32.114V28.812ZM77.3721 22.13H80.9861V35H77.4241V33.544C77.1814 34.5147 76.4794 35 75.3181 35H74.6941C72.6661 35 71.6521 34.038 71.6521 32.114V22.13H75.2921V31.62C75.2921 32.0533 75.5261 32.27 75.9941 32.27H76.5921C77.1121 32.27 77.3721 31.9927 77.3721 31.438V22.13ZM88.2518 31.906V30.45C88.2518 30.2247 88.1998 30.0687 88.0958 29.982C87.9918 29.878 87.8098 29.826 87.5498 29.826H86.0678C83.9012 29.826 82.8178 28.8727 82.8178 26.966V25.016C82.8178 23.092 83.9185 22.13 86.1198 22.13H88.3298C90.5312 22.13 91.6318 23.092 91.6318 25.016V26.16H88.1478V25.224C88.1478 24.9987 88.0958 24.8427 87.9918 24.756C87.8878 24.652 87.7058 24.6 87.4458 24.6H87.0558C86.7958 24.6 86.6138 24.652 86.5098 24.756C86.4058 24.8427 86.3538 24.9987 86.3538 25.224V26.784C86.3538 27.0093 86.4058 27.174 86.5098 27.278C86.6138 27.3647 86.7958 27.408 87.0558 27.408H88.5378C90.7045 27.408 91.7878 28.3527 91.7878 30.242V32.114C91.7878 34.038 90.6872 35 88.4858 35H86.1718C83.9878 35 82.8958 34.038 82.8958 32.114V30.996H86.4318V31.906C86.4318 32.3393 86.6572 32.556 87.1078 32.556H87.5498C88.0178 32.556 88.2518 32.3393 88.2518 31.906ZM99.3114 24.86H97.6214V31.594C97.6214 32.01 97.8554 32.218 98.3234 32.218H99.3114V35H97.2834C95.0994 35 94.0074 34.038 94.0074 32.114V24.86H92.6554V22.13H94.0074V19.738H97.6214V22.13H99.3114V24.86ZM109.092 28.812V35H105.4V18.464H112.212C114.396 18.464 115.488 19.4173 115.488 21.324V25.952C115.488 27.4773 114.795 28.396 113.408 28.708L116.32 35H112.342L109.742 28.812H109.092ZM109.092 21.194V26.186H111.094C111.337 26.186 111.51 26.1427 111.614 26.056C111.718 25.952 111.77 25.7873 111.77 25.562V21.844C111.77 21.4107 111.545 21.194 111.094 21.194H109.092ZM120.604 22.13H123.542C125.743 22.13 126.844 23.092 126.844 25.016V29.566H120.786V31.776C120.786 32.0013 120.838 32.166 120.942 32.27C121.046 32.3567 121.228 32.4 121.488 32.4H122.658C122.901 32.4 123.074 32.348 123.178 32.244C123.282 32.14 123.334 31.9667 123.334 31.724V30.866H126.818V32.114C126.818 34.038 125.717 35 123.516 35H120.604C118.42 35 117.328 34.038 117.328 32.114V25.016C117.328 23.092 118.42 22.13 120.604 22.13ZM120.786 27.434H123.36V25.354C123.36 25.1287 123.308 24.9727 123.204 24.886C123.1 24.782 122.927 24.73 122.684 24.73H121.488C121.228 24.73 121.046 24.782 120.942 24.886C120.838 24.9727 120.786 25.1287 120.786 25.354V27.434ZM134.194 22.13H137.756V35H134.142V33.726C133.882 34.5753 133.198 35 132.088 35H131.464C129.436 35 128.422 34.038 128.422 32.114V25.016C128.422 23.092 129.436 22.13 131.464 22.13H132.088C133.25 22.13 133.952 22.6153 134.194 23.586V22.13ZM132.764 32.27H133.362C133.882 32.27 134.142 31.9927 134.142 31.438V25.692C134.142 25.1373 133.882 24.86 133.362 24.86H132.764C132.296 24.86 132.062 25.0767 132.062 25.51V31.62C132.062 32.0533 132.296 32.27 132.764 32.27ZM148.952 26.758H145.416V25.51C145.416 25.0767 145.182 24.86 144.714 24.86H144.038C143.57 24.86 143.336 25.0767 143.336 25.51V31.62C143.336 32.0533 143.57 32.27 144.038 32.27H144.714C145.182 32.27 145.416 32.0533 145.416 31.62V30.372H148.952V32.114C148.952 34.038 147.851 35 145.65 35H142.998C140.797 35 139.696 34.038 139.696 32.114V25.016C139.696 23.092 140.797 22.13 142.998 22.13H145.65C147.851 22.13 148.952 23.092 148.952 25.016V26.758ZM156.364 24.86H154.674V31.594C154.674 32.01 154.908 32.218 155.376 32.218H156.364V35H154.336C152.152 35 151.06 34.038 151.06 32.114V24.86H149.708V22.13H151.06V19.738H154.674V22.13H156.364V24.86Z" fill="white"/>
<g clip-path="url(#clip0)">
<path d="M21.2751 28.0432C22.4017 25.79 25.0717 25.4727 25.9257 25.4288L31.6092 24.0077C31.6522 23.6229 31.6818 23.1166 31.7045 22.7343C31.832 20.5596 31.9763 18.0946 33.8447 17.1613C34.1122 17.0279 34.3872 16.9267 34.6674 16.86C33.7256 15.7317 32.0548 13.8802 30.3797 12.7637C27.848 11.0759 25.3164 12.7637 22.7848 11.9199C20.2532 11.076 17.7215 10.2321 17.7215 9.38818C17.7215 9.38818 16.8776 11.9199 19.4092 13.6075C19.4092 13.6075 15.1899 14.4514 12.6582 11.0759C12.6582 11.0759 11.8143 13.6075 14.346 16.9831C14.346 16.9831 10.9704 17.8269 6.75106 16.9831C6.75106 16.9831 7.59489 20.3586 10.1266 22.0464C10.1266 22.0464 7.59489 24.5781 2.53169 22.8902C2.53169 22.8902 3.37553 27.1096 6.75106 27.9535C6.75106 27.9535 3.37553 30.4852 0 29.6413C0 29.6413 1.87679 34.2109 9.37717 32.7704C9.37717 32.7704 8.43882 35.5484 2.5316 35.5484C2.5316 35.5484 6.75097 39.7678 13.502 36.3922L8.43873 40.6116C8.43873 40.6116 11.8143 40.6116 16.8776 38.9238C20.1029 37.8487 21.9543 37.1129 22.8767 35.6311C21.2675 34.3031 19.5055 31.5825 21.2751 28.0432ZM28.692 20.3588C28.692 20.3588 28.692 22.0465 26.1603 22.0465C23.6286 22.0465 22.7848 17.8272 22.7848 17.8272C22.7848 17.8272 27.0042 17.8272 28.692 20.3588Z" fill="white"/>
<path d="M45.3105 19.4168C42.3898 19.4168 38.8185 21.2024 38.8185 21.2024C38.1291 19.8243 36.8776 18.4463 35.5231 18.4463C35.4489 18.4463 35.3738 18.464 35.2995 18.4724C35.0675 18.4985 34.8337 18.5534 34.5991 18.6707C32.9113 19.5145 33.7552 24.5779 32.9113 25.4218L26.1603 27.1095C26.1603 27.1095 23.6286 27.1095 22.7847 28.7973C21.5797 31.2066 22.6008 32.9441 23.497 33.8876C24.0042 34.4218 24.4725 34.7045 24.4725 34.7045C24.4725 34.7045 37.1308 33.8607 41.3501 33.0167C45.5695 32.1728 44.7257 29.6412 44.7257 29.6412C44.7257 29.6412 44.7257 30.4851 42.194 30.4851C39.6623 30.4851 37.9746 29.6412 37.9746 29.6412C37.9746 29.6412 37.1308 29.6412 39.6624 27.9535C41.1451 26.9644 42.6286 26.5551 43.9417 26.5551C44.8699 26.5551 45.7147 26.7601 46.4134 27.1095C48.1012 27.9534 48.1012 30.4851 48.1012 30.4851C50.6329 27.1095 50.6329 22.8902 48.1012 20.3585C47.4109 19.6683 46.4067 19.4168 45.3105 19.4168Z" fill="white"/>
</g>
<defs>
<clipPath id="clip0">
<rect width="50" height="50" fill="white"/>
</clipPath>
</defs>
</svg>
