<svg width="30" height="31" viewBox="0 0 30 31" fill="none" xmlns="http://www.w3.org/2000/svg">
<path d="M21.014 6.75943V1.51897C21.014 0.683538 20.3545 0 19.5479 0H1.4661C0.659743 0 0 0.683538 0 1.51897V2.5063V22.3036V22.9874C0 23.5441 0.317654 24.0757 0.781918 24.3289L11.9242 30.3038C12.4129 30.5569 12.9994 30.2027 12.9994 29.6202V23.7975H19.5479C20.3545 23.7975 21.014 23.1142 21.014 22.2785V13.9748H18.0818V20.0001C18.0818 20.4304 17.7642 20.7595 17.3488 20.7595H13.0238V12.9622V8.02549V7.87359C13.0238 7.31664 12.7062 6.785 12.2419 6.53183L5.6689 3.0382H17.3488C17.7642 3.0382 18.0818 3.36731 18.0818 3.79768V6.785H21.014V6.75943Z" fill="white"/>
<path d="M24.777 4.27791L29.5418 9.21458C30.1527 9.84748 30.1527 10.7842 29.5418 11.4171L24.777 16.3537C24.1662 16.9867 23.2374 17.0122 22.6265 16.3793C22.0403 15.772 22.1134 14.7591 22.6756 14.1515L24.8257 11.949H16.4936C16.0785 11.949 15.6628 11.7718 15.394 11.4427C14.7099 10.6832 14.8809 9.34141 15.7606 8.83509C15.9805 8.7085 16.2493 8.63256 16.4936 8.63256H24.8259C24.8259 8.63256 22.7003 6.43005 22.6759 6.43005C22.1136 5.84777 22.0403 4.80981 22.6268 4.22754C23.2132 3.61995 24.1662 3.64501 24.777 4.27791Z" fill="white"/>
</svg>
