<svg width="20" height="20" viewBox="0 0 20 20" fill="none" xmlns="http://www.w3.org/2000/svg">
<path d="M11.5123 3.66452C11.3338 3.53636 11.0992 3.51862 10.9035 3.62046C10.7084 3.72058 10.5859 3.92144 10.5859 4.14116V5.89898H0.585938C0.26207 5.89898 0 6.16105 0 6.48491V13.5162C0 13.84 0.26207 14.1021 0.585938 14.1021H10.5859V15.8599C10.5859 16.0796 10.7084 16.2805 10.9035 16.3806C11.0916 16.4785 11.3288 16.4682 11.5123 16.3366L19.7545 10.4772C19.9084 10.3673 20 10.1899 20 10.0005C20 9.81112 19.9084 9.63374 19.7545 9.5239L11.5123 3.66452Z" fill="black"/>
</svg>
