<svg width="20" height="20" viewBox="0 0 20 20" fill="none" xmlns="http://www.w3.org/2000/svg">
<path d="M8.48766 16.3355C8.66617 16.4636 8.90078 16.4814 9.09648 16.3795C9.2916 16.2794 9.41406 16.0786 9.41406 15.8588V14.101L19.4141 14.101C19.7379 14.101 20 13.839 20 13.5151V6.48384C20 6.15997 19.7379 5.8979 19.4141 5.8979L9.41406 5.8979V4.14009C9.41406 3.92036 9.2916 3.7195 9.09648 3.61938C8.90844 3.52153 8.67121 3.53176 8.48766 3.66344L0.245468 9.52282C0.0915623 9.6327 0 9.81009 0 9.99946C0 10.1889 0.0915623 10.3663 0.245468 10.4761L8.48766 16.3355Z" fill="black"/>
</svg>
